HIERARCHY
ROOT root     
{
	OFFSET 0.0000 0.0000 0.0000
	CHANNELS 6 Xposition Yposition Zposition Zrotation Yrotation Xrotation
	JOINT pelvis   
	{
		OFFSET 0.0000 0.0000 0.0000
		CHANNELS 3 Zrotation Yrotation Xrotation
		JOINT thorax   
		{
			OFFSET 0.0000 23.0750 -5.0000
			CHANNELS 3 Zrotation Yrotation Xrotation
			JOINT rclavicle
			{
				OFFSET 0.0000 28.0009 0.0000
				CHANNELS 3 Zrotation Yrotation Xrotation
				JOINT rhumerus 
				{
					OFFSET -18.5725 5.5939 0.0000
					CHANNELS 3 Zrotation Yrotation Xrotation
					JOINT rradius  
					{
						OFFSET -24.8459 0.0000 0.0000
						CHANNELS 3 Zrotation Yrotation Xrotation
						JOINT rhand    
						{
							OFFSET -24.5477 0.0000 0.0000
							CHANNELS 3 Zrotation Yrotation Xrotation
							End Site
							{
								OFFSET -8.1826 0.0000 0.0000
							}
						}
					}
				}
			}
			JOINT lclavicle
			{
				OFFSET 0.0000 28.0009 0.0000
				CHANNELS 3 Zrotation Yrotation Xrotation
				JOINT lhumerus 
				{
					OFFSET 18.5725 5.5939 0.0000
					CHANNELS 3 Zrotation Yrotation Xrotation
					JOINT lradius  
					{
						OFFSET 24.8459 0.0000 0.0000
						CHANNELS 3 Zrotation Yrotation Xrotation
						JOINT lhand    
						{
							OFFSET 24.5477 0.0000 0.0000
							CHANNELS 3 Zrotation Yrotation Xrotation
							End Site
							{
								OFFSET 8.1826 0.0000 0.0000
							}
						}
					}
				}
			}
			JOINT head     
			{
				OFFSET 0.0000 35.2030 0.0000
				CHANNELS 3 Zrotation Yrotation Xrotation
				End Site
				{
					OFFSET 0.0000 11.7343 0.0000
				}
			}
		}
		JOINT rfemur   
		{
			OFFSET -8.2817 0.0000 0.0000
			CHANNELS 3 Zrotation Yrotation Xrotation
			JOINT rtibia   
			{
				OFFSET 0.0000 -43.3627 0.0000
				CHANNELS 3 Zrotation Yrotation Xrotation
				JOINT rfoot    
				{
					OFFSET 0.0000 -38.2947 0.0000
					CHANNELS 3 Zrotation Yrotation Xrotation
					JOINT rtoes    
					{
						OFFSET 0.0000 0.0000 16.6054
						CHANNELS 3 Zrotation Yrotation Xrotation
						End Site
						{
							OFFSET 0.0000 0.0000 5.5351
						}
					}
				}
			}
		}
		JOINT lfemur   
		{
			OFFSET 8.2817 0.0000 0.0000
			CHANNELS 3 Zrotation Yrotation Xrotation
			JOINT ltibia   
			{
				OFFSET 0.0000 -43.3627 0.0000
				CHANNELS 3 Zrotation Yrotation Xrotation
				JOINT lfoot    
				{
					OFFSET 0.0000 -38.2947 0.0000
					CHANNELS 3 Zrotation Yrotation Xrotation
					JOINT ltoes    
					{
						OFFSET 0.0000 0.0000 16.6054
						CHANNELS 3 Zrotation Yrotation Xrotation
						End Site
						{
							OFFSET 0.0000 0.0000 5.5351
						}
					}
				}
			}
		}
	}
}
MOTION
Frames: 8
Frame Time: .0333333
29.743 86.644 4.665 -152.975 -85.9004 164.916 0 -0 0 3.06308 -20.5902 -21.2474 11.9298 -5.47434 -2.17019e-05 38.7104 52.142 -38.3183 -180 49.6713 -180 -17.3121 21.3829 -3.29264 1.06299 5.10067 -6.01964e-07 -27.5397 -55.7958 -39.9438 -180 -49.8851 180 30.4529 -17.3599 -4.75889 6.57324 10.2541 15.2174 -0.927711 -0.273101 -7.77545 -0 -0 0.153403 -9.02193e-07 -4.92898 10.0174 -0.859399 -1.90543e-06 -36.3763 1.34037 21.7393 -9.00014 -0 -0 2.90783 -7.81483e-06 5.28117 7.10414 0.654997 -5.37434e-06 -29.5593 
29.742 86.648 4.6402 -145.715 -86.7665 157.813 0 -0 0 2.87562 -20.7857 -21.3434 11.623 -5.52349 -1.53026e-05 38.1352 52.8619 -39.1021 180 50.2547 180 -17.5501 21.5032 -3.35785 1.14916 4.92222 -7.41602e-07 -27.5588 -56.0714 -39.89 180 -50.0219 180 30.5243 -17.394 -4.78005 6.56345 9.9547 14.8089 -0.826187 -0.6693 -7.72037 -0 -0 0.00540001 0.000500623 -5.47137 9.99338 -0.952787 -1.90107e-07 -36.1061 1.37765 21.0641 -9.26214 -0 -0 2.81864 -3.45409e-06 5.01624 7.27136 0.636508 5.21827e-06 -29.7234 
29.75 86.652 4.6158 -133.525 -87.5428 145.783 0 -0 0 2.67027 -20.9489 -21.4201 11.2555 -5.56447 1.64651e-06 37.6687 53.6335 -39.7642 -180 50.9177 -180 -17.7928 21.5968 -3.42012 1.20919 4.74756 7.58253e-07 -27.5642 -56.3675 -39.8357 180 -50.1828 180 30.5762 -17.4333 -4.79961 6.52821 9.64727 14.3657 -0.730507 -1.0625 -7.82057 -0 -0 0.161505 0.0180989 -6.02804 9.81224 -1.0489 -3.24523e-07 -35.8246 1.40652 20.382 -9.53988 -0 -0 2.73151 2.70219e-08 4.74664 7.44935 0.616805 3.13603e-06 -29.8855 
29.766 86.658 4.5921 -112.21 -88.1466 124.63 0 -0 0 2.43619 -21.0676 -21.4608 10.8388 -5.58995 3.4304e-06 37.2923 54.4562 -40.3137 -180 51.6788 -180 -17.993 21.6451 -3.46717 1.24412 4.57987 4.65748e-07 -27.565 -56.6966 -39.7726 180 -50.3623 180 30.6021 -17.4704 -4.81422 6.47113 9.33114 13.8893 -0.645099 -1.44895 -7.92011 -0 -0 0.306793 0.0375984 -6.58767 9.64257 -1.14551 -7.08405e-07 -35.54 1.42682 19.6989 -9.81559 -0 -0 2.63615 -7.81201e-06 4.48164 7.64157 0.597203 5.19879e-06 -30.0409 
29.791 86.664 4.5676 -80.1169 -88.3299 92.697 0 -0 0 2.18412 -21.1468 -21.4729 10.3766 -5.59327 7.74673e-06 36.9944 55.3268 -40.7476 180 52.5568 180 -18.1426 21.6224 -3.49267 1.25308 4.42221 2.81583e-08 -27.5722 -57.0571 -39.6971 180 -50.5636 180 30.6026 -17.5073 -4.82464 6.39285 9.00495 13.3847 -0.56461 -1.82795 -8.02898 -0 -0 0.450498 0.0600986 -7.1555 9.47908 -1.24405 7.61117e-06 -35.2367 1.44003 19.0265 -10.1047 -0 -0 2.54886 7.21456e-07 4.2045 7.84196 0.574708 3.21212e-06 -30.1943 
29.852 86.673 4.5182 -36.0415 -87.2084 48.8653 0 -0 0 2.26888 -22.1061 -21.5688 9.86039 -5.575 -1.80074e-06 36.7233 56.2472 -41.1092 180 53.5639 180 -18.2028 21.5341 -3.48983 1.21083 4.27206 1.06809e-06 -27.5982 -57.4588 -39.6022 180 -50.7804 180 30.5781 -17.5375 -4.82907 6.26943 8.65956 12.8486 -0.147502 -3.36597 -8.17577 -0 -0 0.676707 0.0948049 -7.51529 9.24995 -1.30923 -8.99315e-06 -34.9012 1.71763 17.2546 -10.7184 -0 -0 2.6957 -4.9813e-06 4.08579 7.98774 0.5687 1.48648e-06 -30.2803 
29.896 86.682 4.491 -25.8305 -86.4319 38.8028 0 -0 0 1.96386 -22.071 -21.4888 9.34296 -5.51382 -4.93765e-06 36.4496 57.2073 -41.4373 -180 54.7177 -180 -18.1664 21.3805 -3.45741 1.17754 4.14221 1.69818e-06 -27.6531 -57.9033 -39.4861 180 -51.0127 180 30.5382 -17.556 -4.82756 6.15845 8.30563 12.2852 -0.0815043 -3.72331 -8.28552 -0 -0 0.804394 0.121199 -8.07268 9.10548 -1.40658 5.7007e-06 -34.5722 1.72203 16.6199 -11.006 -0 -0 2.61463 -3.2914e-07 3.79815 8.20707 0.543002 3.33049e-06 -30.4205 
29.948 86.691 4.4619 -19.4287 -85.6101 32.5371 0 -0 0 1.6309 -21.9696 -21.3512 8.80846 -5.41501 -7.21791e-06 36.1214 58.2074 -41.7827 -180 56.0176 -180 -18.0313 21.1758 -3.3976 1.12752 4.02776 -3.67618e-07 -27.7472 -58.3949 -39.3442 180 -51.2565 180 30.4878 -17.5581 -4.81982 6.03544 7.93242 11.6882 -0.0230048 -4.06458 -8.3922 -0 -0 0.929294 0.149706 -8.62103 8.96673 -1.50308 -4.64554e-06 -34.2253 1.72242 16.0082 -11.2868 -0 -0 2.5381 6.54354e-06 3.50623 8.43224 0.51479 -2.83797e-06 -30.5531 
